<?xml version="1.0" standalone="no"?>
<!DOCTYPE svg PUBLIC "-//W3C//DTD SVG 20010904//EN"
 "http://www.w3.org/TR/2001/REC-SVG-20010904/DTD/svg10.dtd">
<svg version="1.0" xmlns="http://www.w3.org/2000/svg"
 width="30.000000pt" height="30.000000pt" viewBox="0 0 30.000000 30.000000"
 preserveAspectRatio="xMidYMid meet">

<g transform="translate(0.000000,30.000000) scale(0.100000,-0.100000)"
fill="#000000" stroke="none">
<path d="M48 225 c-6 -14 -17 -24 -24 -21 -8 3 -16 1 -19 -4 -4 -6 2 -10 11
-10 16 0 16 -1 0 -19 -25 -27 -20 -121 6 -121 10 0 18 5 18 10 0 6 43 10 110
10 67 0 110 -4 110 -10 0 -5 8 -10 18 -10 26 0 31 94 6 121 -16 18 -16 19 0
19 9 0 15 4 11 10 -3 5 -11 7 -19 4 -7 -3 -18 7 -24 21 -11 24 -15 25 -102 25
-87 0 -91 -1 -102 -25z m196 -1 c12 -31 4 -34 -94 -34 -98 0 -106 3 -94 34 9
23 179 23 188 0z m-179 -74 c4 -6 -7 -10 -24 -10 -17 0 -31 5 -31 10 0 6 11
10 24 10 14 0 28 -4 31 -10z m225 0 c0 -5 -14 -10 -31 -10 -17 0 -28 4 -24 10
3 6 17 10 31 10 13 0 24 -4 24 -10z m-74 -31 c10 -17 -16 -29 -66 -29 -50 0
-76 12 -66 29 9 14 123 14 132 0z"/>
</g>
</svg>
