<?xml version="1.0" standalone="no"?>
<!DOCTYPE svg PUBLIC "-//W3C//DTD SVG 20010904//EN"
 "http://www.w3.org/TR/2001/REC-SVG-20010904/DTD/svg10.dtd">
<svg version="1.0" xmlns="http://www.w3.org/2000/svg"
 width="43.000000pt" height="43.000000pt" viewBox="0 0 43.000000 43.000000"
 preserveAspectRatio="xMidYMid meet">

<g transform="translate(0.000000,43.000000) scale(0.100000,-0.100000)"
fill="#000000" stroke="none">
<path d="M248 292 c-33 -29 -34 -29 -88 -16 -72 16 -86 2 -26 -27 l46 -23 -27
-28 c-14 -15 -30 -25 -35 -22 -4 3 -12 3 -17 0 -8 -5 43 -66 55 -66 2 0 4 8 4
18 0 10 11 29 24 41 l25 23 20 -41 c36 -69 51 -51 30 35 -11 43 -10 47 15 73
48 50 26 78 -26 33z"/>
</g>
</svg>
