<?xml version="1.0" standalone="no"?>
<!DOCTYPE svg PUBLIC "-//W3C//DTD SVG 20010904//EN"
 "http://www.w3.org/TR/2001/REC-SVG-20010904/DTD/svg10.dtd">
<svg version="1.0" xmlns="http://www.w3.org/2000/svg"
 width="30.000000pt" height="30.000000pt" viewBox="0 0 30.000000 30.000000"
 preserveAspectRatio="xMidYMid meet">

<g transform="translate(0.000000,30.000000) scale(0.100000,-0.100000)"
fill="#000000" stroke="none">
<path d="M140 270 c0 -5 -7 -10 -15 -10 -8 0 -15 -6 -15 -14 0 -8 -7 -16 -15
-20 -8 -3 -15 -13 -15 -21 0 -13 5 -15 23 -9 12 5 33 8 47 8 14 0 35 -3 48 -8
17 -6 22 -4 22 9 0 8 -7 18 -15 21 -8 4 -15 12 -15 20 0 8 -7 14 -15 14 -8 0
-15 5 -15 10 0 6 -4 10 -10 10 -5 0 -10 -4 -10 -10z"/>
<path d="M82 178 c-29 -12 -51 -26 -49 -32 3 -6 13 -37 23 -69 l18 -57 76 0
76 0 18 58 c10 31 20 62 23 68 4 10 -101 55 -123 53 -5 0 -33 -10 -62 -21z"/>
</g>
</svg>
