<svg width="941" height="244" viewBox="0 0 941 244" fill="none" xmlns="http://www.w3.org/2000/svg">
<path d="M0.125 36.4453V-7.15256e-06H191.609V36.4453H117.43V240H74.3047V36.4453H0.125ZM207.957 240V60H249.09V90H250.965C254.246 79.6094 259.871 71.6016 267.84 65.9766C275.887 60.2734 285.066 57.4219 295.379 57.4219C297.723 57.4219 300.34 57.5391 303.23 57.7734C306.199 57.9297 308.66 58.2031 310.613 58.5937V97.6172C308.816 96.9922 305.965 96.4453 302.059 95.9766C298.23 95.4297 294.52 95.1562 290.926 95.1562C283.191 95.1562 276.238 96.8359 270.066 100.195C263.973 103.477 259.168 108.047 255.652 113.906C252.137 119.766 250.379 126.523 250.379 134.18V240H207.957ZM387.371 243.633C375.965 243.633 365.691 241.602 356.551 237.539C347.488 233.398 340.301 227.305 334.988 219.258C329.754 211.211 327.137 201.289 327.137 189.492C327.137 179.336 329.012 170.937 332.762 164.297C336.512 157.656 341.629 152.344 348.113 148.359C354.598 144.375 361.902 141.367 370.027 139.336C378.23 137.227 386.707 135.703 395.457 134.766C406.004 133.672 414.559 132.695 421.121 131.836C427.684 130.898 432.449 129.492 435.418 127.617C438.465 125.664 439.988 122.656 439.988 118.594V117.891C439.988 109.063 437.371 102.227 432.137 97.3828C426.902 92.5391 419.363 90.1172 409.52 90.1172C399.129 90.1172 390.887 92.3828 384.793 96.9141C378.777 101.445 374.715 106.797 372.605 112.969L332.996 107.344C336.121 96.4062 341.277 87.2656 348.465 79.9219C355.652 72.5 364.441 66.9531 374.832 63.2812C385.223 59.5312 396.707 57.6563 409.285 57.6563C417.957 57.6563 426.59 58.6719 435.184 60.7031C443.777 62.7344 451.629 66.0937 458.738 70.7812C465.848 75.3906 471.551 81.6797 475.848 89.6484C480.223 97.6172 482.41 107.578 482.41 119.531V240H441.629V215.273H440.223C437.645 220.273 434.012 224.961 429.324 229.336C424.715 233.633 418.895 237.109 411.863 239.766C404.91 242.344 396.746 243.633 387.371 243.633ZM398.387 212.461C406.902 212.461 414.285 210.781 420.535 207.422C426.785 203.984 431.59 199.453 434.949 193.828C438.387 188.203 440.105 182.07 440.105 175.43V154.219C438.777 155.312 436.512 156.328 433.309 157.266C430.184 158.203 426.668 159.023 422.762 159.727C418.855 160.43 414.988 161.055 411.16 161.602C407.332 162.148 404.012 162.617 401.199 163.008C394.871 163.867 389.207 165.273 384.207 167.227C379.207 169.18 375.262 171.914 372.371 175.43C369.48 178.867 368.035 183.32 368.035 188.789C368.035 196.602 370.887 202.5 376.59 206.484C382.293 210.469 389.559 212.461 398.387 212.461ZM679.402 60L615.301 240H568.426L504.324 60H549.559L590.926 193.711H592.801L634.285 60H679.402ZM782.322 243.516C764.275 243.516 748.689 239.766 735.564 232.266C722.518 224.687 712.479 213.984 705.447 200.156C698.416 186.25 694.9 169.883 694.9 151.055C694.9 132.539 698.416 116.289 705.447 102.305C712.557 88.2422 722.479 77.3047 735.213 69.4922C747.947 61.6016 762.908 57.6563 780.096 57.6563C791.189 57.6563 801.658 59.4531 811.502 63.0469C821.424 66.5625 830.174 72.0312 837.752 79.4531C845.408 86.875 851.424 96.3281 855.799 107.812C860.174 119.219 862.361 132.812 862.361 148.594V161.602H714.822V133.008H821.697C821.619 124.883 819.861 117.656 816.424 111.328C812.986 104.922 808.182 99.8828 802.01 96.2109C795.916 92.5391 788.807 90.7031 780.682 90.7031C772.01 90.7031 764.393 92.8125 757.83 97.0312C751.268 101.172 746.15 106.641 742.479 113.437C738.885 120.156 737.049 127.539 736.971 135.586V160.547C736.971 171.016 738.885 180 742.713 187.5C746.541 194.922 751.893 200.625 758.768 204.609C765.643 208.516 773.689 210.469 782.908 210.469C789.08 210.469 794.666 209.609 799.666 207.891C804.666 206.094 809.002 203.477 812.674 200.039C816.346 196.602 819.119 192.344 820.994 187.266L860.604 191.719C858.104 202.187 853.338 211.328 846.307 219.141C839.354 226.875 830.447 232.891 819.588 237.187C808.729 241.406 796.307 243.516 782.322 243.516ZM940.672 -7.15256e-06V240H898.25V-7.15256e-06H940.672Z" fill="#FAFAFA"/>
</svg>
